<svg viewBox="0 0 259 67" xmlns="http://www.w3.org/2000/svg" aria-hidden="true">
  <g fill="none" fill-rule="evenodd">
    <path fill="#FFF" d="M0 0h259v67H0z"></path>
    <g fill-rule="nonzero">
      <path d="M143.864 48.827v12.307c-6.916 3.476-13.412 5.218-19.918 5.218-18.023 0-28.866-10.582-28.866-24.038 0-14.497 12.401-26.457 28.174-26.457a29.78 29.78 0 019.95 1.697c2.214.694 3.58 1.487 4.965 1.487 1.221 0 1.558-2.025 1.732-3.21h1.722l1.558 16.657h-2.078a15.979 15.979 0 00-4.492-7.89 17.547 17.547 0 00-12.829-5.037c-10.834 0-17.157 8.594-17.157 21.521 0 12.772 7.717 21.43 18.023 21.43a21.01 21.01 0 009.202-2.263V47.587c0-4.07-.647-5.638-6.514-5.638v-1.907h21.767v1.907c-5.412 0-5.239 1.733-5.239 6.878zM83.91 28.502v36.965h-2.852L44.127 27.28c.152.978.213 1.967.183 2.956v23.263c0 7.098 0 9.707 6.497 9.707v1.906H33.494v-1.906c6.57 0 6.57-3.13 6.57-9.707v-26.52c0-3.94 0-8.265-6.916-8.265v-1.816h16.347l30.369 31.219a11.49 11.49 0 01-.173-2.6V28.502c0-6.86.173-9.79-6.379-9.79v-1.815h17.313v1.825c-6.37 0-6.716 2.737-6.716 9.78zM0 65.112v-1.907c4.173 0 7.116-.347 7.116-6.386V25.108c0-6.25-2.25-6.386-7.116-6.386v-1.825h24.42v1.825c-5.003 0-7.08.155-7.08 6.386v31.71c0 6.04 2.605 6.387 7.08 6.387v1.906H0z" fill="#006"></path>
      <path d="M235.455 65.111a6.673 6.673 0 003.453-1.04h2.068a14.033 14.033 0 0010.725-4.296c4.164-3.987 6.587-10.583 6.587-16.923a29.338 29.338 0 00-8.674-20.654c-2.405-2.427-5.048-3.595-7.134-5.985a12.771 12.771 0 01-2.524-3.466 8.266 8.266 0 00-2.433-1.907l-1.385-.182c-.182-.32-.683-.32-1.048-.32-2.733-.474-5.303 1.013-8 1.533v.356c1.731.52 2.05 2.6 3.007 3.649l.838 1.186a9.557 9.557 0 004.155 2.737c2.26.346 4.164-.694 6.378-.174 7.827 3.823 13.385 12.772 13.385 21.694 0 12.772-7.289 17.79-11.845 17.79a4.953 4.953 0 01-2.733-1.004 24.42 24.42 0 00.829-6.979c0-7.38-2.916-15.363-6.907-19.44-1.904-1.916-3.954-3.467-6.086-3.467-1.048 0-2.087 0-2.78.912a3.441 3.441 0 00-1.211 2.947 9.759 9.759 0 01-5.376 1.56 10.498 10.498 0 01-6.46-2.427v-2.71l-.328-1.386c-.173-1.131-.173-2.518-1.048-3.567l-.52-1.387c-.856-2.08-.519-2.946-2.077-5.984-.346-1.56-1.913-2.427-2.943-3.467-.52-.347-.993-1.907-.993-1.907-1.02-2.362-1.722-4.944-3.964-6.385l-.528.346-1.212-.912a2.158 2.158 0 00-1.868-.639l-1.112-.866a9.274 9.274 0 00-3.098 0l-1.202.346c-.702.174-1.568.694-1.914.694A12.883 12.883 0 00185.66 2l-1.202.347a4.67 4.67 0 00-2.606.866s-1.74.52-1.896.52c-.486.256-.914.61-1.257 1.04a7.452 7.452 0 00-2.597 3.458l-.692 1.387v2.536a5.044 5.044 0 00-1.558 2.08 30.688 30.688 0 00-1.048 9.278 1.35 1.35 0 01-.911 1.049v2.682c.159.747.278 1.502.355 2.262 0 .694.173 1.387.173 2.08-.025.243.033.487.164.693 0-.346.173 1.56.173 1.743a53.187 53.187 0 003.126 10.035c-1.385 2.244-2.953 6.587-3.991 10.747a4.27 4.27 0 00-3.126-1.04 3.826 3.826 0 00-2.733 1.569 2.776 2.776 0 00-3.089.346c-1.43 1.241-1.43 1.925-1.43 2.938a3.533 3.533 0 00-1.048 2.427 6.538 6.538 0 001.047 3.995l73.942.073z" fill="#FFF"></path>
      <path d="M191.728 65.111a11.397 11.397 0 01-1.039-4.515 5.79 5.79 0 01.52-2.92l-1.905.365c-.52.648-.692 1.004-.692 1.341l.865-.337c.173 0 .346.337.52.693-.174.858-1.212.858-1.559 1.213-.519 1.734 1.04 2.737 1.212 4.16h2.078zm66.515-22.287a29.338 29.338 0 00-8.674-20.663c-2.406-2.426-5.048-3.594-7.135-5.984a12.771 12.771 0 01-2.524-3.467 8.712 8.712 0 00-2.433-1.907c.174.52.347 1.04.529 1.56h-.182a4.316 4.316 0 01-2.424-1.04l.683-.702c-.173-.32-.683-.32-1.038-.32-2.734-.474-5.303 1.022-8 1.542v.347c1.73.52 2.05 2.6 3.006 3.65h1.003c.346 0 .91.346 1.22.346a3.497 3.497 0 00-.346-1.04.647.647 0 011.04 0c.865.529 2.077-.347 2.942 1.04a5.507 5.507 0 00-2.943.529c0 .182.529.493.346.848-.856-.355-1.913 0-2.26-.666l-.172.128a9.64 9.64 0 004.164 2.737c2.26.347 4.164-.693 6.378-.173 7.827 3.822 13.385 12.772 13.385 21.694 0 12.772-7.29 17.79-11.845 17.79a4.953 4.953 0 01-2.734-1.004 24.44 24.44 0 00.82-6.98c0-7.38-2.906-15.362-6.897-19.44-1.905-1.907-3.964-3.467-6.087-3.467-1.048 0-2.096 0-2.779.913a3.45 3.45 0 00-1.212 2.946 9.759 9.759 0 01-5.376 1.56 10.526 10.526 0 01-6.469-2.426v-2.673c-.501-.174-2.223-1.223-1.367-2.007.385.14.74.35 1.048.62-.182-1.131-.182-2.518-1.048-3.567a2.303 2.303 0 01-1.376-.347 3.003 3.003 0 01-1.057-2.08c.538.913 1.394.52 1.914 1.04-.857-2.08-.52-2.946-2.078-5.984-.346-1.56-1.904-2.427-2.943-3.467-.519-.347-.692-.867-1.33-.867-.683-.173-.683-1.04-.683-1.541.361.126.707.294 1.03.501-1.03-2.362-1.732-4.944-3.973-6.385l-.529.346h-2.733a12.088 12.088 0 011.567-.912 2.158 2.158 0 00-1.868-.639 5.281 5.281 0 01-1.777.694h-.164c0-.52-.182-1.214.83-1.56a9.274 9.274 0 00-3.099 0c-.173.866-.683 1.386-.683 2.08-.52.346-.702.912-1.221 1.395.146-1.06.38-2.107.702-3.129-.702.174-1.568.694-1.914.694a12.81 12.81 0 00-3.818-1.378c1.048.684.529 1.898.702 2.737l-.702-.347c-.164-.693-1.038-1.213-1.202-2.08a4.67 4.67 0 00-2.606.867v.173c.643.11 1.209.489 1.558 1.04-1.212 0-2.078-.52-3.29-.52 0 0 0-.173-.164-.173-.486.256-.914.61-1.257 1.04a7.498 7.498 0 00-2.597 3.457c.346 0 .866 0 1.039.174-.693.173-1.039 1.04-1.731 1.222v2.527a5.044 5.044 0 00-1.558 2.08 30.98 30.98 0 00-1.048 9.278 1.35 1.35 0 01-.911 1.05v2.681a16.84 16.84 0 011.612-1.195v2.171c-.701 0-1.211.913-1.211 1.387 0 .693.173 1.387.173 2.08-.025.243.033.487.164.693 0-.346.355-.693.91-.912a1.514 1.514 0 011.04-.346 6.726 6.726 0 00-1.04 1.906l-.519.52a1.68 1.68 0 00-.182.53 53.48 53.48 0 003.126 10.034c-1.385 2.235-2.944 6.578-3.991 10.738a4.252 4.252 0 00-3.117-1.031 3.78 3.78 0 00-2.733 1.56 2.776 2.776 0 00-3.089.347c-1.43 1.24-1.43 1.925-1.43 2.937a3.533 3.533 0 00-1.048 2.427 6.538 6.538 0 001.048 3.996h25.986a4.563 4.563 0 00-.866-1.56c-.519-1.04-.173-2.436-.173-3.476a16.28 16.28 0 011.74-2.91c.165-.53 0-.53.165-.694l1.211-.21c.693 0 1.212-.51 2.078-.51.528.72.528-.53 1.403-.913 1.895-.346 3.645 0 4.702 1.387 0 .21.173.21.173.374h-.911a4.26 4.26 0 00-3.317-.374c0 .374-.173.374-.173.912v.913c.683 0 1.22.647 1.895 1.003a2.614 2.614 0 011.941-1.003 1.912 1.912 0 012.087 1.87v1.906c.71.574 1.537.985 2.423 1.205a1.266 1.266 0 01-1.385.702H199.2c-.173-.173-.52-.173-.52-.702a13.487 13.487 0 00-1.22 2.089h20.046c-.338-.694-.693-1.214-.866-1.56a11.874 11.874 0 01-.346-3.476l1.913-2.573c1.03 0 1.905-.337 3.809-.51.355-.52 0-.73 1.558-.73a6.371 6.371 0 012.424.374c.182.355.182.355 0 .693-.337.347-1.03-.338-1.55-.164-.346.337.174.51.174.912.346.301-1.558-.365-1.558-.365s-.356 1.013-.52 1.369l1.03 1.03c.346.52-.51 1.04-.51 1.57-.356-.174-1.048-.694-1.048-.53-.346 1.396 0 2.61-.164 3.996h1.895l.173-2.946c.182-1.743 2.26-4.835 3.472-4.835a2.796 2.796 0 011.704.711c.319.648 1.12 1.004 1.12 1.341 0 .338-.473.53-1.284.53-.328 0-.328-.53-.839-.913l-1.038 1.086s1.212 1.04 1.212 1.742a2 2 0 01-.693 1.733l-1.039-2.08c-.528 0-1.385 1.04-1.385 1.551 0 .703-.355 1.05-.355 2.09h10.615a6.673 6.673 0 003.462-1.04h2.069a14.032 14.032 0 0010.76-4.297c4.165-4.024 6.588-10.62 6.588-16.95h-.045zm-37.267 15.692l-1.74.173c.47.299.738.83.701 1.387a2.154 2.154 0 01-.701 1.395c-.337-.355-.337-.912-.684-1.395-.346 0-.519.912-.519 1.222.087 1.35.5 2.658 1.203 3.813h1.567a30.295 30.295 0 01-.528-4.16 8.15 8.15 0 01.747-2.435h-.046zm-22.679 2.08c0-.685-.51-.858-1.212-.858-.328 0-1.12.51-1.12.858 0 .702-.32 4.515-.32 4.515h1.112c.547-1.56 1.586-3.64 1.586-4.515h-.046zm-3.644-.174c-.183 0 .182.356-1.55-1.377-.355 0-.91 1.03-.91 1.377a14.41 14.41 0 00.91 4.69h1.367c.028-1.56.21-3.294.21-4.69h-.027zm45.303-43.525a1.822 1.822 0 00-1.567-1.058c-.52-.693-1.212-1.56-1.914-1.56.529 0 1.221-.52 2.078-.52.355.913 1.047 1.387 1.22 2.08l.183 1.058zm-5.212-3.649h-1.904c-.338-.52-.912 0-1.212 0-.301 0-.529 0-1.194-.52 1.011 0 1.54-.52 2.406-.866.701.474 1.385.675 1.904 1.386zm-4.155 19.779c-1.13-.338-1.768-.858-2.806-.858a4.48 4.48 0 00-2.078.858c-.52-.694.337-2.08 1.039-2.427a1.31 1.31 0 011.394 0c0 1.04 1.166.52 1.822.912.3.456.514.963.629 1.496v.019zm-.155 2.517c-.975 0-1.13-.136-1.822-.136a2.732 2.732 0 00-2.424 1.176 1.416 1.416 0 010-1.468 3.708 3.708 0 012.078-1.223 2.06 2.06 0 012.168 1.633v.018zm3.964 3.823a10.287 10.287 0 00-4.61-1.414 7.786 7.786 0 00-3.39 1.56l-.356-1.56c1.048-.173 1.048-1.04 1.74-1.04.52 0 1.194-.173 1.677-.173.483 0 .802-.338.975-.338.838 0 .492.912 1.011.912.52 0 .912-.356 1.221-.356.875-.045 1.559 1.35 1.732 2.39v.019zm.519 3.813c-1.212 0-2.415-.337-2.597-.912-.346-.347 0-1.04-.911-1.04-.346 0-.856.52-.856.52-.328.173-1.285-.52-1.285 0 0 .912-.656 1.213-1.522 1.213-.354.026-.71-.03-1.039-.164v-1.715c2.233 0 2.078-.693 3.044-.693.647 0 1.139.346 1.658.346.911 0 .355-.346 1.221-.346.866 0 1.212.693 1.731.912.037.474.556 1.14.556 1.861v.018zm-1.558 3.731c-.52-.173-1.731-.346-1.731-.866 0-.694-.356-.913-1.194-.913a6.272 6.272 0 00-2.132.52 4.646 4.646 0 01-.693-1.377 8.538 8.538 0 012.333-.502c1.157 0 2.378 0 2.378.502 0 .712 1.039.903 1.039 2.618v.018zm-29.996-27.003c0 .173-.355 1.733-.355 1.733l-1.385.356.866-3.75c.374.506.67 1.066.874 1.661zm33.276 33.061a3.324 3.324 0 01-.474 2.244l-1.038-1.56c.355-.52.355-1.213.865-2.08.173-.009.665 1.223.665 1.396h-.018zm-4.118-2.253c-1.23 0-.529-2.436-3.044-2.436-.483 0-.81.912-1.503 1.049 0-.173.182-1.222.182-1.222a1.588 1.588 0 01.838-1.387c1.285 0 .966.52 1.95.912a4.17 4.17 0 001.577.52v2.564zm-10.807-9.807c-1.558-.867-2.433-2.427-3.818-3.996 1.385 0 1.74 1.396 2.78 1.569.388.298.737.645 1.038 1.03v1.397zm-14.76-12.772c-1.04 0-1.559-.52-2.078-1.487a8.156 8.156 0 010-2.071c.337.693.337 1.04.692 1.387.693-.347.693.51.866.684.262.466.438.976.52 1.505v-.018zm28.492 29.348a3.295 3.295 0 00-.529 1.012c0-.839-1.039-1.35-1.731-2.736l.692-1.223a2.208 2.208 0 011.212 1.733.913.913 0 000 .73c0 .164.356.164.356.502v-.018zm-3.472-4.881a7.544 7.544 0 01-.346 1.733c-1.194-.164-1.194-1.56-1.367-1.733-.802-1.04-1.959-.173-2.825-.173-.346-1.04.173-1.04.173-1.734.529 0 1.04-.355 1.531 0 .802-.355 1.294.52 2.132.52.198.486.432.956.702 1.405v-.018zm-8.702-7.116c0 .694-.346 1.214-.164 1.907-.355-1.04-1.048-2.08-1.394-3.11 0-.165-.173-.165.182-.338.164 0 .857 0 .857.173.281.414.46.89.52 1.387v-.019zm-15.107-13.52c-.173.703-.865 0-1.03 0h-1.567c-.173-.346-.355-.52-.355-.912.702-.173 1.221-.52 1.74-.173.347.61.693 1.085 1.212 1.085zm3.818 3.905a2.34 2.34 0 01-2.943-.173l1.376-.603a6.64 6.64 0 001.567.776zm8.866 9.807c0 1.04-.174 2.262-.174 3.476-.519 0-.519-.347-.519-1.05a18.061 18.061 0 00-.911-2.946c-.337-1.36-1.203-2.518-1.895-4.078-.173-.693-1.048-1.04-1.74-1.57a3.095 3.095 0 012.432.703c0 .347.173.52.693 1.04 1.212 0 .865 1.57 1.904 2.263-.365.355-.712.73-1.039 1.122.556.347 1.075.538 1.249 1.04zm-6.77-5.118c0 .52-.328.693-.656 1.04a3.824 3.824 0 01-.63-1.213 4.759 4.759 0 01.156-1.56c.437.52 1.13 1.213 1.13 1.733zm16.182 15.7c0 .064-.319.374-.319.374a4.642 4.642 0 00-2.333-.547c0-.684-.519-1.56-.865-1.56-1.039 0-.911.693-1.731.693l1.558-1.56c.173-.346.173-.346.52-.346.518.346.692.529 1.211.529a2.66 2.66 0 01-.164 1.03c.51.347.838-.173 1.166.347.483.183.957.356.957 1.04zm-13.923-11.996c0 .337-.519.684-.692.684a4.097 4.097 0 01-1.03-1.596c-.008-.67.169-1.33.51-1.907.174 0 .347.347.52.347.173.173 0 .702.173 1.213.52.347.866.958.52 1.259zm-13.312-16.631a16.487 16.487 0 00-6.86-2.171 2.42 2.42 0 01-.156 1.204 22.482 22.482 0 015.631 3.394v1.56c-1.731-1.734-3.644-3.467-5.795-3.987-.155.347-.82.693-.984 1.387a9.362 9.362 0 00-4-1.907c-.52 0-.865-1.825-.865-1.825a2.826 2.826 0 001.73-1.742h.702c.529 0 .529-.347.529-.858 0-1.049-2.26-1.049-3.299-1.049a4.47 4.47 0 00-2.779.52c-.337 0-.164.53-.164.913 0 .164.51.51.51.51.356 0 .702-.346 1.058-.346-.183 1.049.164 1.569 1.202 2.089l-.173 1.688c-2.086 0-3.471.82-5.02 1.523a4.56 4.56 0 01-1.221-1.387c-2.078.685-5.577 3.467-5.577 3.467v-1.25c1.531-1.386 3.5-2.089 5.057-2.873V25.29c-.692-.346-1.385 0-2.077 0-1.464.2-2.85.783-4.018 1.688a5.964 5.964 0 00-.174-1.168c1.914-1.04 4.192-1.906 6.442-1.56v-.702c-.173-.347-.173-.858-.519-.858-1.039-1.049-2.077-2.609-2.077-3.649l.692-.328c-.346-.985-.692-3.576 0-4.443a5.47 5.47 0 01-2.278-2.08 10.6 10.6 0 01-.911-2.363c.528-1.04.911-1.386 1.358-2.408.373-.001.72-.199.91-.52.857-.173 1.377-1.04 2.415-.52.662.07 1.308.246 1.914.52a.966.966 0 00.337.912c1.039 0 1.039 1.022 1.567 1.898.45.126.918.182 1.385.164 1.039.328 1.904.328 2.25.794a6.827 6.827 0 014.338-.794c.276-.672.51-1.36.701-2.062.164.502.164 0 .51 0 .639-.52 1.431-1.386 2.634-1.04.692.52 1.904.174 2.597 1.04.52.675.865 1.715 1.385 2.536-.52 1.022 0 2.409-1.039 2.929l-1.039 1.04c-.346 0-.346.346-.865.346a5.617 5.617 0 01-.347 4.097c.347-.146.866-.146.866-.64.173.174 0 .494 0 .64v.501a3.596 3.596 0 01-1.22 2.427c-.338 1.05-1.213 2.436-2.333 2.61v.346c2.458.05 4.866.702 7.016 1.897l.054 1.095zm7.053 10.847l-.912.347a5.008 5.008 0 01-3.644-1.223c.692 0 1.567-.912 1.567-.912a6.513 6.513 0 002.989 1.788zm-4.893-3.905c-.975 0-2.187.52-2.734-.52a5.69 5.69 0 001.048-1.049l1.686 1.57zm14.068 16.139c0 .912-1.03 1.906-1.385 2.6.355-.913.355-2.6 0-2.6-.346-.174-1.039 0-1.039-.356 0-.52.173-1.204.173-1.551 0-.702-.519-1.05-.519-1.396 0-1.04 1.221-1.213 1.567-1.906.151.74.21 1.497.173 2.253 0 .347.52 1.396 0 2.262.028.52 1.057.174 1.057.694h-.027zm-3.954-1.889c0 1.031-.684 1.907-.857 2.947a3.46 3.46 0 00-.856-2.6c0-.347.492-.347.164-.912 0 0-.912-.52-.912-1.214 0-.693.63-1.213.912-1.733 0-.173.692.347.692 1.387.015.355-.047.71-.182 1.04-.182.538 1.039.538 1.039 1.085zm-14.178-12.26c-.911.173-1.558-.694-2.424-1.04a23.322 23.322 0 00-.692-2.519c.692.52 2.25.52 1.904 2.09 0 .428.72.775 1.212 1.468zm4.793 4.862a4.442 4.442 0 01-2.533-.52 5.823 5.823 0 01-1.914-1.396 6.61 6.61 0 011.895-.72c.702.72 1.34 1.942 2.552 2.636zM176.939 14.79l-1.202.347.164-.912a8.138 8.138 0 011.038-1.515v2.08zm22.105 24.002c-.701.173-1.913.52-2.241-.347a4.119 4.119 0 010-4.077c.285.94.51 1.896.674 2.864.182.72 1.221 1.077 1.567 1.56zm-4.883-9.424c-.183 1.04-.52 2.6-1.568 3.303a2.574 2.574 0 00-.683-1.57c-.182 0 0 .52-.182.52a15.626 15.626 0 00-.337 1.743 1.957 1.957 0 01-1.74.164v-.52a3.8 3.8 0 01-.174-1.386l-.173-.174c-.52.174-.52.52-.52.913a2.62 2.62 0 00-.51 1.213 2.358 2.358 0 01-1.567-.52v-1.56c0-.347 0-.347-.173-.347l-.911.913c-.693-.52-.866-1.907-.866-2.737 2.78-1.56 6.242-1.04 8.337-.174.374.046.72.046 1.067.22zm8.865 13.986h-.52c-1.904.629-3.462-.511-5.029-1.56a9.102 9.102 0 013.153-.539l.52 1.04c.658.29 1.287.645 1.876 1.059zm-25.713-26.155l-.866 1.049c.174 1.66-.519 2.873-.519 4.442l-.866-2.782a6.847 6.847 0 01.866-2.18l1.385-.53zm17.713 22.314c-.911-.511-2.433-.684-2.077-1.733.346-.913.865-1.04 1.212-1.378a8.812 8.812 0 00.865 3.11zm15.91 17.652h-.174c-.346-.529-.52-.912-.866-.912.52-1.907-.519-3.466-.856-5.026v-.52c.52.912 1.895 1.733 1.722 2.6.13 1.281.189 2.57.173 3.858zm-3.983-6.45c-.91 0-1.558 0-2.077-.912-.173 0-.465-.51-.638-.164-.856.684-1.731-.52-2.733-.347a3.38 3.38 0 01-1.905 1.031v-.127a1.624 1.624 0 011.03-1.369c1.039.347 1.904-1.916 2.952-.702.428.132.874.19 1.321.173 1.194.53 1.531 1.542 2.05 2.418zM191.208 36.74c0 1.213-.173 2.736-1.385 3.302l-.346-1.733a6.828 6.828 0 001.731-1.57zm5.777 7.526a3.341 3.341 0 01-1.94.684 16.708 16.708 0 01-2.734-3.211l2.733.52a19.403 19.403 0 011.941 2.007zm10.333 9.889c-.693-.53-1.731-.53-2.087-1.396a7.135 7.135 0 00-2.004-.173 10.01 10.01 0 01-2.26.173c-.182 0 0-.173-.346-.347-1.039.347-2.087.347-3.126 1.396l.866-2.089c.53-.077 1.054-.193 1.567-.347a6.489 6.489 0 011.731-.173v.173c1.914 0 4.1-.173 5.467 1.387l.192 1.396zm-19.745-14.642c-1.039-1.031-1.914-1.907-1.914-2.947a2.54 2.54 0 011.558.347c0 .867.356 1.569.356 2.6zm-3.29-4.936l-.528 2.163a10.18 10.18 0 01-1.212-3.212l1.74 1.05zm24.757 23.1a12.728 12.728 0 00-.702 2.061c-.346-1.05-.692-2.573-1.904-2.573a2.062 2.062 0 00-1.039-1.414l-1.33-.173c.173.684 1.148.684.483 1.587.665.511 1.193.511 1.53 1.35.356.53 0 1.223.183 1.56l-1.048.52c0-.857.182-2.554-.975-2.919-1.03.365-1.212-1.04-1.904-1.414-.347 0-.347-.857-.866-.51-.866.51-1.904 0-2.733.51l.865-1.386c.693-.52 1.385-.347 2.078-.52l1.385-.165c1.385 0 2.542.685 3.927 1.214a1.67 1.67 0 011.002 1.633c.346.127 1.048.127 1.048.638zm-13.668-8.001h-.346a5.465 5.465 0 01-1.731-.913 4 4 0 01-.164-1.049h1.367l.874 1.962zm-13.348-12.407a5.96 5.96 0 01-2.734-2.172 5.653 5.653 0 01-.483-2.089 1.513 1.513 0 011.267.913v.182c.911 1.04 1.777 1.77 1.95 3.166zm8.319 6.085c-.164.967-.693 1.304-1.558 2.517-.51.347-1.568.52-2.597 1.04.173-.52.683-.693 1.03-1.213.469-.584.878-1.213 1.22-1.88a3.159 3.159 0 011.905-.464zm12.683 16.74l-.52.52c-.519-.52-.172-1.907-1.038-2.08-.866 0-1.558-.84-1.904-1.013l.692-.337c.22-.1.473-.1.693 0 .346.337.692.51.692.912.346.474.866 0 1.221.474.206.474.263.999.164 1.506v.018zm-15.809-18.145c-.51 1.04-1.03 2.016-2.068 2.353a5.77 5.77 0 01-2.433 0c.52-.337 1.039-.501 1.74-.967l1.376-1.386h1.385zm3.472 7.89a2.24 2.24 0 01-2.077.357l-1.04-1.369h2.607l.51 1.013zm-12.501-13.1c-.911.913-1.74 1.214-2.087 2.263a3.461 3.461 0 00-.337-1.396c.143-.486.445-.91.857-1.204.519.164.865.164 1.567.338zm1.931 2.61a3.697 3.697 0 01-1.102 2.426 6.58 6.58 0 01-.656.52c0-1.04.492-1.906.492-2.737.483-.21.957-.556 1.266-.21zm2.424 2.08l-.692 2.536c-.866.675-2.041.337-2.998.337 1.266-.337 2.305-1.824 2.998-2.873.173-.174.346 0 .692 0zm.866 8.767c0 .52-.173 2.6-.173 2.6-.347-1.214-1.212-2.436-2.25-2.436a4.26 4.26 0 01-1.176-1.551c-.474-.53-.957 0-1.622-.53a3.56 3.56 0 00-2.26.53v-.53l1.212-1.386c1.22.174 2.67 0 2.98.912.712.348 1.357.82 1.904 1.396v.52c.382.119 1.039.301 1.385.475zm-.866 5.382l-1.212 1.058c-.346-.374 0-1.231-.52-1.76 0-.347.347-.52.174-.685-.173-.346-2.132-1.049-2.132-1.049a23.575 23.575 0 01-2.232-1.733c-.693-.173-1.212.173-2.078.347v-.347c.346-.693.346-1.57 1.385-1.57.52 0 1.212 0 1.558.52.702 0 1.048.703 1.53.913a8.931 8.931 0 001.97 1.56c-.039.408.16.801.51 1.013 1.047 0 .7 1.03 1.047 1.733zm-2.588 2.463l-.464 1.734-1.13-3.102c-1.394-1.232-2.952-1.414-3.818-2.108-.692-.173-.692.347-1.039 0a1.762 1.762 0 01.52-1.386h1.038l1.04.52c.519.529 1.73.529 1.73 1.56 0 .182-.173.356.356 1.04l1.622.374.145 1.368zm-4.72 1.734c0 1.377-2.25 3.284-2.25 3.284 0-.858.52-1.907.52-2.947a2.459 2.459 0 00-1.395-.693c-.52.356-.52.693-.692 1.213-.52 1.05-1.558 2.09-1.731 3.13a.173.173 0 01-.174-.174c0-1.733.174-4.69 1.212-5.875a3.315 3.315 0 012.57-1.24l.911.163-.693 1.04c.693.365 1.723 1.013 1.723 2.099zm-6.077-1.05a3.488 3.488 0 01-.51 1.907c-.173-.684-.665-1.55-1.494-1.55-.693 1.377-.866 1.906-.183 3.977a4.746 4.746 0 01-1.549 1.049 6.585 6.585 0 01-.355-2.6 10.75 10.75 0 01.528-3.43c.51-.539.866-1.405 1.376-1.78h1.823c-.839 0-.839.73-.839 1.241.52.137 1.203.32 1.203 1.15v.036zm-4.428 1.907c-.182 0-.702-.52-1.212-.52-.501 1.04 0 1.743 0 2.947-.01.356-.07.71-.182 1.049-.32 0-.911-.693-1.094-1.387v-2.737l1.45-1.87a2.117 2.117 0 011.038 2.482v.036zm35.535-47.885a3.58 3.58 0 00-.346-3.23c-.346-.693-1.212-1.04-2.077-1.715l-1.194.675a2.017 2.017 0 00-.911 1.825 6.993 6.993 0 012.824 2.928h.529c.474-.52.82.018 1.166-.52l.01.037zm-5.758 1.04c0-.52-.173-.52-.337-.52-.866 0-.866-1.387-1.568-1.04-.337 0-.683-.347-1.202 0 0 .173 0 .173.337.173.865 0 .528 1.213 1.22 1.387h1.55zm2.633 2.08s.346 0 0-.165l-3.645-.529c-.337.53-1.211.53-1.211 1.04h-.347c.295 1.456.41 2.941.347 4.425a1.532 1.532 0 011.385 1.56c.714.28 1.4.629 2.05 1.04.319-.164.473-.684.637-1.204-.637-.913-2.168-.356-2.168-1.916l-1.03-.347a12.175 12.175 0 00-.182-2.737l.182-.127c0 .127.164.31.51.666a2.849 2.849 0 002.05-.356c.32-.183.32-1.022.638-1.022.32 0 .63-.018.775-.365l.01.037zm-8.52-3.65c-.336-.346-1.393.174-1.904.347a1.459 1.459 0 00-1.212 1.214h1.905a5.555 5.555 0 011.203-1.588l.009.028zm-3.817-1.888c-.173-1.688-2.078-1.824-2.943-2.536h-.693c-1.348.502-1.667 1.898-1.822 3.038.474 1.56 1.476.52 2.169 1.56a19.578 19.578 0 013.28-2.09l.009.028zm10.232 15.846v-.885h-1.695l-.164.174 1.86.711zm-7.808-9.97c0-.348-.347-.694-.857-1.04h-4.164a1.004 1.004 0 001.039 1.04c0 .71.52.838.701 1.02.52.357.684.357 1.212 0 .51.357.684-.31.866 0a9.499 9.499 0 01-.182 2.364c-.174 1.213-1.212 1.04-2.078 1.56 0 .52-.52 1.395 0 1.915a8.48 8.48 0 011.74-.912c0-.52.52-1.04 1.212-1.386-.009-1.551.501-3.038.501-4.59l.01.028zm-1.385 9.122c-.338-.693-1.212 0-2.078-.347-.055.423.155.836.529 1.04a2.732 2.732 0 011.54-.73l.009.037z" fill="#FF6200"></path>
    </g>
  </g>
</svg>